# xmcd
#
# Track frame offsets: 
#        150
#        21532
#        43247
#        59406
#        79150
#        95923
#        117044
#        132581
#        145661
#        166506
#        187736
#        205872
#
# Disc length: 2970 seconds
#
# Revision: 0
# Processed by: cddbd v1.5.2PL0 Copyright (c) Steve Scherf et al.
# Submitted via: ExactAudioCopy v0.99pb4
#
DISCID=a60b980c
DTITLE=Kenny Neal - Hooked on Your Love
DYEAR=2010
DGENRE=Blues
TTITLE0=Hooked on Your Love
TTITLE1=Bitter with the Sweet
TTITLE2=Down in the Swamp
TTITLE3=Blind, Crippled, or Crazy
TTITLE4=If Walls Could Talk
TTITLE5=Things Have Got to Change
TTITLE6=New Lease on Life
TTITLE7=Ain't Nothing You Can Do
TTITLE8=Old Friends
TTITLE9=Tell Me Why
TTITLE10=Voodoo Mama
TTITLE11=You Don't Love Me
EXTD=
EXTT0=
EXTT1=
EXTT2=
EXTT3=
EXTT4=
EXTT5=
EXTT6=
EXTT7=
EXTT8=
EXTT9=
EXTT10=
EXTT11=
PLAYORDER=
